<?xml version="1.0" encoding="UTF-8" standalone="no"?>
<svg
   width="1079.8906"
   zoomAndPan="magnify"
   viewBox="0 0 809.91797 809.92574"
   height="1079.901"
   preserveAspectRatio="xMidYMid meet"
   version="1.0"
   id="svg119"
   sodipodi:docname="crosshairs2.svg"
   inkscape:version="1.1.2 (b8e25be833, 2022-02-05)"
   xmlns:inkscape="http://www.inkscape.org/namespaces/inkscape"
   xmlns:sodipodi="http://sodipodi.sourceforge.net/DTD/sodipodi-0.dtd"
   xmlns="http://www.w3.org/2000/svg"
   xmlns:svg="http://www.w3.org/2000/svg">
  <sodipodi:namedview
     id="namedview121"
     pagecolor="#ffffff"
     bordercolor="#666666"
     borderopacity="1.0"
     inkscape:pageshadow="2"
     inkscape:pageopacity="0.0"
     inkscape:pagecheckerboard="0"
     showgrid="false"
     inkscape:zoom="0.55104167"
     inkscape:cx="844.7637"
     inkscape:cy="535.34971"
     inkscape:window-width="1920"
     inkscape:window-height="1057"
     inkscape:window-x="-1928"
     inkscape:window-y="-8"
     inkscape:window-maximized="1"
     inkscape:current-layer="svg119" />
  <defs
     id="defs5">
    <clipPath
       id="a3f693d72e">
      <path
         d="m 112.08594,31.085938 h 747.75 V 778.83594 h -747.75 z m 0,0"
         clip-rule="nonzero"
         id="path2" />
    </clipPath>
  </defs>
  <path
     fill="#ffffff"
     d="m 397.69141,412.22656 h 14.53515 v -14.52734 h -14.53515 z m 20.98046,6.44531 H 391.25 V 391.25 h 27.42187 v 27.42187"
     fill-opacity="1"
     fill-rule="nonzero"
     id="path7"
     style="fill:#ff0000;fill-opacity:0.1981352" />
  <path
     fill="#ffffff"
     d="m 781.17969,33.195312 -4.46094,-4.457031 -227.68359,227.683589 4.46093,4.45704 227.6836,-227.683598"
     fill-opacity="1"
     fill-rule="nonzero"
     id="path9"
     style="fill:#ff0000;fill-opacity:0.1981352" />
  <path
     fill="#ffffff"
     d="m 552.33984,547.86719 -4.47265,4.48047 228.84375,228.84765 4.48437,-4.48437 -228.85547,-228.84375"
     fill-opacity="1"
     fill-rule="nonzero"
     id="path11"
     style="fill:#ff0000;fill-opacity:0.1981352" />
  <path
     fill="#ffffff"
     d="m 28.72266,776.71094 4.48047,4.48437 228.85546,-228.84765 -4.48437,-4.48047 -228.85156,228.84375"
     fill-opacity="1"
     fill-rule="nonzero"
     id="path13"
     style="fill:#ff0000;fill-opacity:0.1981352" />
  <path
     fill="#ffffff"
     d="m 635.08203,622.19531 c 53.58984,-56.73437 86.5,-133.21484 86.5,-217.23828 0,-84.02344 -32.91797,-160.5 -86.50781,-217.24219 l -5.48047,5.48047 c 52.19531,55.33203 84.23828,129.875 84.23828,211.76172 0,81.89063 -32.04297,156.42578 -84.23047,211.76563 z m -447.35937,12.88672 c 56.74218,53.58984 133.21093,86.5 217.23437,86.5 84.02344,0 160.49609,-32.91016 217.23828,-86.5 l -5.48047,-5.47266 c -55.33203,52.1875 -129.86718,84.22266 -211.75781,84.22266 -81.88672,0 -156.42187,-32.03516 -211.75391,-84.22266 z M 174.84375,187.71484 c -53.58984,56.74219 -86.50781,133.21875 -86.50781,217.24219 0,84.02344 32.91015,160.50391 86.5,217.23828 l 5.48047,-5.48047 C 128.125,561.38281 96.08203,486.84766 96.08203,404.95703 c 0,-81.88672 32.04297,-156.42187 84.24219,-211.76172 z M 404.95703,9.90625 c 105.65234,0 201.75,41.695312 272.70703,109.48828 l 7.00391,-7.0039 C 611.91406,42.808594 513.33984,0 404.95703,0 296.57812,0 198.00781,42.800781 125.25391,112.39063 l 7.0039,6.99609 C 203.21875,51.601562 299.30859,9.90625 404.95703,9.90625 Z m 0,790.10937 c -105.64062,0 -201.73047,-41.68359 -272.69141,-109.47265 l -7.0039,7 c 72.7539,69.57812 171.32422,112.38281 279.69531,112.38281 108.38281,0 206.94141,-42.80469 279.69531,-112.38281 l -7.0039,-7 C 606.69922,758.33203 510.60937,800.01562 404.95703,800.01562 Z M 119.38672,132.25781 112.38281,125.26172 C 42.80078,198.00781 0,296.57812 0,404.95703 0,513.33984 42.80078,611.90625 112.375,684.65234 l 7.00391,-6.99609 C 51.59375,606.69922 9.90625,510.60937 9.90625,404.95703 c 0,-105.64844 41.6875,-201.73828 109.48047,-272.69922 z m 578.14062,-7.0039 -7,6.99609 c 67.79688,70.96094 109.48047,167.05859 109.48047,272.70703 0,105.65234 -41.68359,201.74219 -109.47265,272.69922 l 7.00781,6.99609 c 69.57031,-72.74609 112.375,-171.3125 112.375,-279.69531 0,-108.37891 -42.80469,-206.94922 -112.39063,-279.70312 z M 404.95703,88.34375 c -84.02344,0 -160.5,32.91016 -217.24219,86.5 l 5.48047,5.48047 c 55.33203,-52.19141 129.875,-84.242189 211.76172,-84.242189 81.89844,0 156.43359,32.050779 211.77344,84.249999 l 5.47656,-5.48047 C 565.46875,121.25391 488.98828,88.34375 404.95703,88.34375 Z M 560.13672,547.25 c 34.41797,-37.50781 55.46094,-87.48438 55.46094,-142.29297 0,-54.80469 -21.05079,-104.78125 -55.47657,-142.29687 l -3.64843,3.64453 c 33.5,36.57422 53.97265,85.27343 53.97265,138.65234 0,53.38281 -20.46484,102.07422 -53.95703,138.64453 z M 249.79687,262.66797 c -34.42578,37.50781 -55.48046,87.48437 -55.48046,142.28906 0,54.80859 21.04687,104.78516 55.47265,142.29297 l 3.63672,-3.64844 c -33.48828,-36.57031 -53.95312,-85.26172 -53.95312,-138.64453 0,-53.37891 20.47265,-102.07422 53.96093,-138.64453 z m 155.16016,347.77734 c -53.37891,0 -102.06641,-20.46484 -138.64453,-53.95703 l -3.63672,3.64844 c 37.50781,34.41797 87.48438,55.46094 142.28125,55.46094 54.80859,0 104.78516,-21.04297 142.29297,-55.46094 l -3.64844,-3.64844 c -36.57031,33.49219 -85.26172,53.95703 -138.64453,53.95703 z m 0,-416.12109 c -54.80469,0 -104.78125,21.04687 -142.29687,55.47265 l 3.64453,3.64454 c 36.57812,-33.4961 85.27343,-53.96875 138.65234,-53.96875 53.39063,0 102.08203,20.47265 138.65234,53.96875 l 3.64844,-3.64454 C 509.75,215.37109 459.76562,194.32422 404.95703,194.32422"
     fill-opacity="1"
     fill-rule="nonzero"
     id="path15"
     style="fill:#ff0000;fill-opacity:0.1981352" />
  <path
     fill="#ffffff"
     d="M 261.20703,256.74609 33.19531,28.738281 l -4.45703,4.464844 228.00781,228.011715 4.46094,-4.46875"
     fill-opacity="1"
     fill-rule="nonzero"
     id="path17"
     style="fill:#ff0000;fill-opacity:0.1981352" />
  <path
     fill="#ffffff"
     d="m 404.95703,389.83594 c -0.54687,0 -0.98828,-0.44922 -0.98828,-0.99219 0,-0.55078 0.44141,-0.99219 0.98828,-0.99219 0.55078,0 0.99219,0.44141 0.99219,0.99219 0,0.54297 -0.44141,0.99219 -0.99219,0.99219"
     fill-opacity="1"
     fill-rule="nonzero"
     id="path19"
     style="fill:#ff0000;fill-opacity:0.1981352" />
  <path
     fill="#ffffff"
     d="m 404.95703,5.945312 c -0.54687,0 -0.98828,-0.441406 -0.98828,-0.992187 0,-0.542969 0.44141,-0.992187 0.98828,-0.992187 0.55078,0 0.99219,0.449218 0.99219,0.992187 0,0.550781 -0.44141,0.992187 -0.99219,0.992187"
     fill-opacity="1"
     fill-rule="nonzero"
     id="path41"
     style="fill:#ff0000;fill-opacity:0.1981352" />
  <path
     fill="#ffffff"
     d="m 421.08203,405.94922 c -0.55078,0 -0.99219,-0.44141 -0.99219,-0.99219 0,-0.53906 0.44141,-0.98828 0.99219,-0.98828 0.53906,0 0.98828,0.44922 0.98828,0.98828 0,0.55078 -0.44922,0.99219 -0.98828,0.99219"
     fill-opacity="1"
     fill-rule="nonzero"
     id="path43"
     style="fill:#ff0000;fill-opacity:0.1981352" />
  <path
     fill="#ffffff"
     d="m 804.96484,405.94922 c -0.55078,0 -0.99218,-0.44141 -0.99218,-0.99219 0,-0.53906 0.4414,-0.98828 0.99218,-0.98828 0.54688,0 0.98828,0.44922 0.98828,0.98828 0,0.55078 -0.4414,0.99219 -0.98828,0.99219"
     fill-opacity="1"
     fill-rule="nonzero"
     id="path65"
     style="fill:#ff0000;fill-opacity:0.1981352" />
  <path
     fill="#ffffff"
     d="m 404.95703,422.07031 c -0.54687,0 -0.98828,-0.4414 -0.98828,-0.98828 0,-0.55078 0.44141,-0.99219 0.98828,-0.99219 0.55078,0 0.99219,0.44141 0.99219,0.99219 0,0.54688 -0.44141,0.98828 -0.99219,0.98828"
     fill-opacity="1"
     fill-rule="nonzero"
     id="path67"
     style="fill:#ff0000;fill-opacity:0.1981352" />
  <path
     fill="#ffffff"
     d="m 404.95703,805.96094 c -0.54687,0 -0.98828,-0.44922 -0.98828,-0.99219 0,-0.54688 0.44141,-0.98828 0.98828,-0.98828 0.55078,0 0.99219,0.4414 0.99219,0.98828 0,0.54297 -0.44141,0.99219 -0.99219,0.99219"
     fill-opacity="1"
     fill-rule="nonzero"
     id="path89"
     style="fill:#ff0000;fill-opacity:0.1981352" />
  <path
     fill="#ffffff"
     d="m 388.83594,405.94922 c -0.54297,0 -0.99219,-0.44141 -0.99219,-0.99219 0,-0.53906 0.44922,-0.98828 0.99219,-0.98828 0.55078,0 0.99218,0.44922 0.99218,0.98828 0,0.55078 -0.4414,0.99219 -0.99218,0.99219"
     fill-opacity="1"
     fill-rule="nonzero"
     id="path91"
     style="fill:#ff0000;fill-opacity:0.1981352" />
  <path
     fill="#ffffff"
     d="m 4.953125,405.94922 c -0.550781,0 -0.992187,-0.44141 -0.992187,-0.99219 0,-0.53906 0.441406,-0.98828 0.992187,-0.98828 0.550781,0 0.992187,0.44922 0.992187,0.98828 0,0.55078 -0.441406,0.99219 -0.992187,0.99219"
     fill-opacity="1"
     fill-rule="nonzero"
     id="path113"
     style="fill:#ff0000;fill-opacity:0.1981352" />
  <g
     clip-path="url(#a3f693d72e)"
     id="g117"
     style="fill:#ff0000;fill-opacity:0.4125874"
     transform="translate(-81)">
    <path
       fill="#ffffff"
       d="m 488.55469,747.71094 0.0351,-9.17188 h 13.54297 v -1.65625 h -13.54297 l 0.14063,-39.48047 h 13.40234 v -1.66015 h -13.40234 l -0.0703,-39.46485 h 13.47265 v -1.66015 h -13.47265 l -0.0586,-39.46485 h 13.53125 v -1.66015 H 488.5898 l -0.0234,-18.20313 c 103.41406,-1.40234 187.20703,-85.25781 188.15234,-188.55078 l 17.41016,0.0234 v 13.51953 h 1.66015 V 406.7734 l 39.5586,0.0586 v 13.44922 h 1.66015 V 406.832 l 39.5625,0.0703 v 13.37891 h 1.65625 V 406.9023 l 39.5625,-0.14062 v 13.51953 h 1.66016 v -13.51953 l 10.05859,-0.0352 C 828.55078,594.07422 676.23047,746.30859 488.55469,747.71094 Z m -346.13672,-340.98438 10.05859,0.0352 v 13.51953 h 1.66016 v -13.51953 l 39.5625,0.14062 v 13.37891 h 1.65625 v -13.37891 l 39.5625,-0.0703 v 13.44922 h 1.66015 v -13.44922 l 39.5586,-0.0586 v 13.50781 h 1.66015 v -13.51953 l 17.40625,-0.0234 c 0.96094,103.84375 85.64063,188.08203 189.8125,188.58594 l -0.0234,18.16797 h -13.53907 v 1.66015 h 13.52735 l -0.0586,39.46485 h -13.46875 v 1.66015 h 13.46875 l -0.0703,39.46485 h -13.39844 v 1.66015 h 13.39844 l 0.14063,39.48047 h -13.53907 v 1.65625 h 13.53907 l 0.0351,9.20703 c -188.43359,-0.5 -341.65234,-153.125 -342.60937,-341.01953 z m 342.60937,-344.550779 -0.0351,9.21875 h -13.53907 v 1.660157 h 13.53907 l -0.14063,39.457032 h -13.39844 v 1.65625 h 13.39844 l 0.0703,39.48047 h -13.46875 v 1.66015 h 13.46875 l 0.0586,39.46485 h -13.52735 v 1.66015 h 13.53907 l 0.0234,18.15625 c -104.17187,0.51563 -188.85156,84.75391 -189.8125,188.59766 l -17.40625,-0.0234 v -13.50781 h -1.66015 v 13.49609 l -39.5586,-0.0586 v -13.4375 h -1.66015 v 13.42578 l -39.5625,-0.0586 v -13.36719 h -1.65625 v 13.36719 l -39.5625,0.14062 v -13.50781 h -1.66016 v 13.50781 l -10.05859,0.0352 C 143.375,215.30469 296.59375,62.679688 485.02734,62.175781 Z M 652.91016,389.65625 v 13.57812 l -39.5625,0.0586 v -13.63672 h -1.66797 v 13.64844 c -13.17969,0.082 -26.3711,0.17578 -39.5625,0.39453 v -14.04297 h -1.66016 v 14.07812 c -13.45703,0.23438 -26.92969,0.59766 -40.39062,1.22657 13.46093,0.63281 26.93359,0.99609 40.39062,1.22656 v 14.09375 h 1.66016 v -14.05859 c 13.1914,0.22265 26.38281,0.3164 39.5625,0.39843 v 13.66016 h 1.66797 v -13.64844 l 39.5625,0.0586 v 13.58984 h 1.66015 v -13.57813 l 18.83203,0.0234 c -0.94531,101.47266 -83.24609,183.85156 -184.84765,185.24219 l -0.0234,-17.94531 h 13.60156 v -1.66016 h -13.60156 l -0.0703,-39.47656 h 13.67187 v -1.66016 h -13.68359 c -0.0781,-13.15625 -0.17188,-26.3125 -0.39453,-39.46484 h 14.07812 v -1.66016 h -14.11328 c -0.23437,-13.4375 -0.60937,-26.87109 -1.22656,-40.29687 -0.63281,13.42578 -0.99219,26.85937 -1.22656,40.29687 h -14.11329 v 1.66016 h 14.07813 c -0.22266,13.15234 -0.31641,26.30859 -0.39844,39.46484 h -13.67969 v 1.66016 h 13.66797 l -0.0703,39.47656 h -13.59766 v 1.66016 h 13.59766 l -0.0234,17.98047 c -102.35937,-0.5 -185.54687,-83.2461 -186.5039,-185.27735 l 18.83203,-0.0234 v 13.57813 h 1.66015 v -13.58984 l 39.5625,-0.0586 v 13.64844 h 1.65625 v -13.66016 c 13.19141,-0.082 26.38282,-0.17578 39.57422,-0.39843 v 14.05859 h 1.65625 V 406.1875 c 13.46094,-0.23047 26.9336,-0.59375 40.39063,-1.22656 -13.45703,-0.62891 -26.92969,-0.99219 -40.39063,-1.22657 v -14.07812 h -1.65625 v 14.04297 c -13.1914,-0.21875 -26.38281,-0.3125 -39.57422,-0.39453 v -13.64844 h -1.65625 v 13.63672 l -39.5625,-0.0586 v -13.57812 h -1.66015 v 13.56641 l -18.83203,-0.0352 c 0.95703,-102.01172 84.14453,-184.76563 186.5039,-185.26953 l 0.0234,17.99609 h -13.59766 v 1.65625 h 13.59766 l 0.0703,39.46875 h -13.66797 v 1.66016 h 13.67969 c 0.082,13.15625 0.17578,26.30859 0.39844,39.46484 h -14.07813 v 1.66016 h 14.11329 c 0.23437,13.4375 0.59375,26.87109 1.22656,40.29687 0.61719,-13.42578 0.99219,-26.85937 1.22656,-40.29687 h 14.11328 v -1.66016 h -14.07812 c 0.22265,-13.15625 0.3164,-26.30859 0.39453,-39.46484 h 13.68359 v -1.66016 h -13.67187 l 0.0703,-39.46875 h 13.60156 v -1.65625 h -13.60156 l 0.0234,-17.96094 c 101.60156,1.39063 183.90234,83.77344 184.84765,185.23438 l -18.83203,0.0352 v -13.56641 z m 176.59765,13.54297 -10.05859,-0.0352 v -13.50781 h -1.66016 v 13.50781 l -39.5625,-0.14062 v -13.36719 h -1.65625 v 13.36719 l -39.5625,0.0586 v -13.42578 h -1.66015 v 13.4375 l -39.5586,0.0586 v -13.49609 h -1.66015 v 13.50781 l -17.41016,0.0234 C 675.77344,299.89062 591.98047,216.02734 488.56641,214.63672 l 0.0234,-18.20313 h 13.54297 v -1.66015 h -13.53125 l 0.0586,-39.46485 h 13.47265 v -1.66015 h -13.47265 l 0.0703,-39.48047 h 13.40234 v -1.65625 H 488.73043 L 488.5898,73.054688 h 13.54297 V 71.394531 H 488.5898 l -0.0351,-9.183593 C 676.23047,63.613281 828.55078,215.85156 829.50781,403.19922 Z m 30.32813,0.10547 -20.38672,-0.0703 C 838.51562,210.37109 681.69922,53.648438 488.51953,52.269531 l -0.0703,-21.183593 h -3.31641 l -0.0703,21.136718 C 291.11719,52.714844 133.41016,209.82422 132.47656,403.23437 l -20.39062,0.0703 v 3.3164 l 20.39062,0.0703 c 0.9336,193.41015 158.64063,350.51953 352.58594,351.01171 l 0.0703,21.13282 h 3.31641 l 0.0703,-21.17969 c 193.17971,-1.37887 349.99611,-158.10152 350.92971,-350.9648 l 20.38672,-0.0703 v -3.3164"
       fill-opacity="1"
       fill-rule="nonzero"
       id="path115"
       style="fill:#ff0000;fill-opacity:0.4125874" />
  </g>
</svg>
