<?xml version="1.0" ?>
<!DOCTYPE svg  PUBLIC '-//W3C//DTD SVG 1.1//EN'  'http://www.w3.org/Graphics/SVG/1.1/DTD/svg11.dtd'>
<!-- Uploaded to: SVG Repo, www.svgrepo.com, Generator: SVG Repo Mixer Tools -->
<svg fill="#000000" width="800px" height="800px" viewBox="0 0 100 100" version="1.1" xml:space="preserve" xmlns="http://www.w3.org/2000/svg" xmlns:xlink="http://www.w3.org/1999/xlink">
<g id="Grid"/>
<g id="_x31_"/>
<g id="_x32_"/>
<g id="_x33_"/>
<g id="_x34_"/>
<g id="_x35_"/>
<g id="_x36_"/>
<g id="_x37_"/>
<g id="_x38_"/>
<g id="_x39_"/>
<g id="_x31_0"/>
<g id="_x31_1"/>
<g id="_x31_2"/>
<g id="_x31_3"/>
<g id="_x31_4"/>
<g id="_x31_5"/>
<g id="_x31_6"/>
<g id="_x31_7"/>
<g id="_x31_8"/>
<g id="_x31_9">
<path d="M36.9,66.5c-6,0-12-2-16.8-6C8.9,51.3,7.3,34.7,16.5,23.4c9.2-11.2,25.9-12.8,37.1-3.6h0c9.5,7.9,12.3,21,6.8,32.1   c-0.9,1.8-2,3.5-3.3,5c-1.7,2-3.6,3.7-5.7,5.1C47.2,65.1,42,66.5,36.9,66.5z M36.9,16.8c-6.7,0-13.4,2.9-18.1,8.5   C10.7,35.3,12.1,50,22,58.2c7.9,6.5,19.4,7.1,27.9,1.4c1.9-1.2,3.5-2.8,5-4.6c1.1-1.4,2.1-2.9,2.9-4.5c4.9-9.8,2.4-21.5-6.1-28.4h0   C47.4,18.6,42.1,16.8,36.9,16.8z M60.9,68.9c-0.3,0-0.7-0.1-1-0.3l-8.8-7.3c-0.3-0.3-0.5-0.7-0.5-1.2s0.2-0.9,0.6-1.2   c1.4-1.1,2.7-2.4,3.9-3.9c0.9-1.1,1.8-2.3,2.5-3.5c0.2-0.4,0.6-0.6,1-0.7c0.4-0.1,0.9,0,1.2,0.3l8.7,7.1c0.3,0.3,0.5,0.6,0.5,1   c0,0.4-0.1,0.8-0.3,1.1l-6.5,7.9C61.8,68.8,61.4,68.9,60.9,68.9z M54.4,60.1l6.3,5.2l4.6-5.6l-6.2-5.1c-0.6,0.8-1.2,1.7-1.8,2.4   C56.4,58.2,55.5,59.2,54.4,60.1z M77.5,86.2c-2.7,0-5.3-0.9-7.5-2.7L57.1,72.8c-0.6-0.5-0.7-1.5-0.2-2.1l13.2-16.1   c0.5-0.6,1.5-0.7,2.1-0.2L85.1,65c3.2,2.7,4.8,6.9,4.2,11.1c-0.3,2.1-1.2,4-2.6,5.7C84.4,84.7,81,86.2,77.5,86.2z M60.1,71.4   l11.8,9.7c3.8,3.1,9.4,2.6,12.5-1.2c1-1.3,1.7-2.7,1.9-4.3c0,0,0,0,0,0c0.5-3.1-0.7-6.3-3.1-8.3l-11.8-9.7L60.1,71.4z M43.2,57.5   c-0.2,0-0.5,0-0.7-0.1c-1.2-0.2-2.3-0.8-3-1.8c-0.7-1-1-2.2-0.8-3.4l0.3-1.7c0.1-0.7,0.7-1.3,1.5-1.3h6.2c0.4,0,0.9,0.2,1.1,0.5   c0.3,0.3,0.4,0.8,0.3,1.2l-0.4,2.7c-0.2,1.2-0.8,2.3-1.8,3C45.1,57.2,44.1,57.5,43.2,57.5z M41.7,52.3l-0.1,0.4   c-0.1,0.4,0,0.8,0.3,1.2c0.2,0.3,0.6,0.6,1,0.6c0.4,0.1,0.8,0,1.2-0.3c0.3-0.2,0.6-0.6,0.6-1l0.1-0.9H41.7z M47.3,48.1h-6.2   c-0.4,0-0.9-0.2-1.1-0.5s-0.4-0.8-0.3-1.2l1.6-9.7c0.4-2.5,2.7-4.2,5.2-3.8c2.2,0.4,3.8,2.3,3.8,4.5c0,0.3,0,0.5-0.1,0.8l-1.4,8.6   C48.7,47.6,48,48.1,47.3,48.1z M42.8,45.1H46l1.2-7.4c0-0.1,0-0.2,0-0.3c0-0.8-0.6-1.4-1.3-1.5c-0.4-0.1-0.8,0-1.2,0.3   c-0.3,0.2-0.6,0.6-0.6,1L42.8,45.1z M31.1,43.3h-6.5c-0.6,0-1.2-0.4-1.4-1l-2.7-8c-0.8-2.4,0.5-5,2.9-5.8c2.5-0.8,5,0.5,5.8,2.9   l3.4,10c0.2,0.5,0.1,1-0.2,1.4C32,43,31.6,43.3,31.1,43.3z M25.7,40.3H29l-2.7-8c-0.2-0.6-0.8-1.1-1.5-1.1c-0.2,0-0.3,0-0.5,0.1   c-0.8,0.3-1.3,1.2-1,2L25.7,40.3z M29.8,52.2c-1.9,0-3.7-1.2-4.3-3.1l-0.9-2.7c-0.2-0.5-0.1-1,0.2-1.4c0.3-0.4,0.7-0.6,1.2-0.6h6.5   c0.6,0,1.2,0.4,1.4,1l0.3,0.8c0.8,2.4-0.5,5-2.9,5.8c0,0,0,0,0,0C30.8,52.1,30.3,52.2,29.8,52.2z M28.1,47.4l0.3,0.7   c0.3,0.8,1.2,1.3,2,1c0.7-0.3,1.2-1,1.1-1.7H28.1z"/>
</g>
<g id="_x32_0"/>
<g id="_x32_1"/>
<g id="_x32_2"/>
<g id="_x32_3"/>
<g id="_x32_4"/>
<g id="_x32_5"/>
</svg>